<svg id="Layer_1" data-name="Layer 1" xmlns="http://www.w3.org/2000/svg" viewBox="0 0 613.83 180.96"><defs><style>.cls-1{fill:#001547;}.cls-2{fill:#0036d0;}</style></defs><title>fergus-horizontal</title><path class="cls-1" d="M229.42,69.69l.07,25.66,44.22-.11,0,15.52-44.22.11.11,41.91-17.41,0L212,54.22l63.51-.16,0,15.51Z"/><path class="cls-1" d="M347.77,136.81c-3,4.8-12.28,17.44-32.44,17.49-20.44,0-34.4-14.42-34.46-36.75-.05-21.31,14.56-35.56,33.85-35.61,22-.06,32.66,15.14,32.71,36.31,0,1.16-.13,3-.13,4.21l-50.32.13c1.19,9.42,7,17.53,19.19,17.49,12.47,0,18-8.45,20.12-11.94Zm-50.38-26.55,33.64-.08c-.46-9-7-15.07-16.28-15C305.32,95.16,297.8,102,297.39,110.26Z"/><path class="cls-1" d="M374.6,83.38l0,10.15c1.29-3.48,6.78-11.9,20.12-11.94a20.37,20.37,0,0,1,2.61.14l.05,16.82c-1.6-.14-3.19-.28-4.64-.28-8.85,0-13.77,3.23-16.22,9.47-1.3,3.48-1.87,7.54-1.85,13.63l.08,31-16.53,0-.18-69Z"/><path class="cls-1" d="M420,155.62c.74,6.38,3.65,12.47,15.54,12.44,12.47,0,17-5.12,16.92-18.17v-6.24h-.15c-2.31,3.2-8.1,8.87-20.28,8.9-18.7,0-30.48-13.55-30.54-34.58-.05-21.75,11.22-36.42,30.22-36.47,9.57,0,16.83,4.3,20.61,9.22l0-7.54,16.53,0,.17,65.11c0,7.39-.55,12.18-2.13,16.53C462.57,176.4,452,180.92,435,181c-20.74,0-31.06-9.2-31.68-24Zm15.5-59.92c-11.16,0-17.52,7.73-17.49,21.65s6.44,21.3,17.6,21.27,17.53-8,17.49-21.36S446.55,95.67,435.53,95.7Z"/><path class="cls-1" d="M482.62,83.11l16.53,0,.1,36.69c0,4.93.17,9.71,1.77,13.34s4.8,6.07,10.6,6.06c10.3,0,14.77-8,14.75-19.18l-.1-37,16.53,0,.18,69-16.53.05,0-8.85c-3.33,5.81-10.71,10.61-20.57,10.64-7,0-12.91-2.14-17-6.63-4.36-4.92-6.12-9.7-6.15-24.92Z"/><path class="cls-1" d="M601.87,102.38a27.6,27.6,0,0,0-19.45-7.78c-6.53,0-11.31,2.35-11.3,6.84,0,4.93,4.8,5.93,14.52,7.94l8.27,1.86c10.45,2.44,19.88,6.33,19.92,19,0,15.8-14.3,23.38-30.1,23.42-16.53,0-27.72-8.05-31.94-14l11.14-9.89C566.86,135,573.54,140,584.13,140c8.26,0,13-2.93,13-7.86s-3.93-5.65-10.61-7.08l-10.3-2.15c-12-2.58-21.48-7.63-21.51-20.25,0-15.08,14.59-21.5,27.79-21.53,13.77,0,24.37,6,28.88,11Z"/><path class="cls-2" d="M125.88,3A4,4,0,0,0,121,.14L62.06,15.93,43.84,5.41a3,3,0,0,0-4.4,3.38L53.89,62.72a12,12,0,0,1-3.11,11.59L16.44,108.65,3.75,101.32a2.5,2.5,0,0,0-3.66,2.81L5,122.45l3.23,12.08h0a25,25,0,0,0,24.15,18.54H67.74L61.55,130l9.66-2.59,5.3,19.77a8,8,0,0,0,7.73,5.93H98.8l-8.27-30.87,9.66-2.59,7.38,27.53a8,8,0,0,0,7.72,5.93h14.57L103.72,55.5a4,4,0,0,1,2.83-4.9l5.79-1.55A25,25,0,0,0,130,18.43ZM77.41,34.6a6,6,0,1,1,4.25-7.35A6,6,0,0,1,77.41,34.6Z"/></svg>