<?xml version="1.0" encoding="UTF-8"?>
<svg width="135px" height="135px" viewBox="0 0 135 135" version="1.1" xmlns="http://www.w3.org/2000/svg" xmlns:xlink="http://www.w3.org/1999/xlink">
    <!-- Generator: Sketch 51.1 (57501) - http://www.bohemiancoding.com/sketch -->
    <title>Combined Shape</title>
    <desc>Created with Sketch.</desc>
    <defs></defs>
    <g id="Logo" stroke="none" stroke-width="1" fill="none" fill-rule="evenodd">
        <g fill="#000000" fill-rule="nonzero" id="Combined-Shape">
            <g>
                <path d="M28.671321,15.7681329 L75.2397781,3.29015247 C87.2957518,0.0597640638 92.0038897,0.143624341 97.0429694,1.31979074 C102.082049,2.49595714 106.467909,5.02813483 110.006039,8.80402267 C113.544169,12.5799105 115.970863,16.6153474 119.201252,28.671321 L131.679232,75.2397781 C134.909621,87.2957518 134.82576,92.0038897 133.649594,97.0429694 C132.473427,102.082049 129.94125,106.467909 126.165362,110.006039 C122.389474,113.544169 118.354037,115.970863 106.298064,119.201252 L59.7296064,131.679232 C47.6736328,134.909621 42.9654949,134.82576 37.9264152,133.649594 C32.8873355,132.473427 28.5014751,129.94125 24.9633452,126.165362 C21.4252154,122.389474 18.9985213,118.354037 15.7681329,106.298064 L3.29015247,59.7296064 C0.0597640638,47.6736328 0.143624341,42.9654949 1.31979074,37.9264152 C2.49595714,32.8873355 5.02813483,28.5014751 8.80402267,24.9633452 C12.5799105,21.4252154 16.6153474,18.9985213 28.671321,15.7681329 Z M61.828125,100.070312 L81.828125,31.6328125 L73,31.6328125 L53,100.070312 L61.828125,100.070312 Z"></path>
            </g>
        </g>
    </g>
</svg>